<svg xmlns="http://www.w3.org/2000/svg" version="1.1" xmlns:xlink="http://www.w3.org/1999/xlink" xmlns:svgjs="http://svgjs.dev/svgjs" width="1000" height="679" viewBox="0 0 1000 679"><g transform="matrix(1,0,0,1,-0.6060606060606233,97.75885997521686)"><svg viewBox="0 0 396 269" data-background-color="#ffffff" preserveAspectRatio="xMidYMid meet" height="679" width="1000" xmlns="http://www.w3.org/2000/svg" xmlns:xlink="http://www.w3.org/1999/xlink"><g id="tight-bounds" transform="matrix(1,0,0,1,0.2400000000000091,10.899999999999977)"><svg viewBox="0 0 395.52 247.2" height="247.2" width="395.52"><g><svg></svg></g><g><svg viewBox="0 0 395.52 247.2" height="247.2" width="395.52"><g transform="matrix(1,0,0,1,103.13405373134327,47.215199999999996)"><svg viewBox="0 0 189.25189253731344 152.7696" height="152.7696" width="189.25189253731344"><g><svg viewBox="0 0 189.25189253731344 152.7696" height="152.7696" width="189.25189253731344"><g><svg viewBox="0 0 189.25189253731344 152.7696" height="152.7696" width="189.25189253731344"><g><svg viewBox="0 0 189.25189253731344 152.7696" height="152.7696" width="189.25189253731344"><g id="textblocktransform"><svg viewBox="0 0 189.25189253731344 152.7696" height="152.7696" width="189.25189253731344" id="textblock"><g><svg viewBox="0 0 189.25189253731344 152.7696" height="152.7696" width="189.25189253731344"><g transform="matrix(1,0,0,1,0,0)"><svg width="189.25189253731344" viewBox="2.75 -26 33.20000076293945 26.799999237060547" height="152.7696" data-palette-color="#ee3e38"><path d="M16.4-20.05L16.4-20.05 16.6-17.05Q16.6-16.2 16.4-15.9 16.2-15.6 15.83-15.6 15.45-15.6 15.03-16.32 14.6-17.05 14.08-17.9 13.55-18.75 12.38-19.48 11.2-20.2 9.7-20.2 8.2-20.2 7.25-19.48 6.3-18.75 6.3-17.9 6.3-17.05 6.45-16.53 6.6-16 6.98-15.6 7.35-15.2 7.63-14.93 7.9-14.65 8.55-14.35 9.2-14.05 9.53-13.93 9.85-13.8 10.6-13.5L10.6-13.5Q15.15-11.9 16.45-10.38 17.75-8.85 17.75-6 17.75-3.15 15.1-0.75L15.1-0.75Q13.3 0.8 10.15 0.8L10.15 0.8Q8 0.8 5.35-0.25L5.35-0.25Q4.6-0.55 4.48-0.58 4.35-0.6 4.08-0.7 3.8-0.8 3.68-0.83 3.55-0.85 3.35-0.95 3.15-1.05 3.08-1.13 3-1.2 2.9-1.35L2.9-1.35Q2.75-1.6 2.75-2.15L2.75-2.15 2.75-6.5Q2.75-7.05 2.98-7.43 3.2-7.8 3.6-7.8 4-7.8 4.17-7.58 4.35-7.35 4.5-6.65 4.65-5.95 4.8-5.65L4.8-5.65Q6.65-1.05 10-1.05L10-1.05Q11.55-1.05 12.95-1.88 14.35-2.7 14.35-4.48 14.35-6.25 13.2-7.35 12.05-8.45 10.4-9.08 8.75-9.7 7.1-10.38 5.45-11.05 4.3-12.38 3.15-13.7 3.15-15.7L3.15-15.7Q3.15-18.5 5.4-20.2 7.65-21.9 10.35-21.9 13.05-21.9 14.45-21.48 15.85-21.05 16.13-20.7 16.4-20.35 16.4-20.05ZM22.8-18.55L22.8-18.55 21.85-18.5Q21-18.5 21-19.2L21-19.2Q21-19.7 21.45-20.05L21.45-20.05Q23.35-21.3 25.25-23.8L25.25-23.8Q26.05-24.95 26.52-25.48 27-26 27.5-26 28-26 28-24.85L28-24.85Q28-24.85 27.8-22L27.8-22Q27.8-21.3 28.07-21.15 28.35-21 29.85-21L29.85-21 31.6-21Q33.85-21 34.35-21.25L34.35-21.25Q35.25-21.7 35.45-21.7L35.45-21.7Q35.95-21.7 35.95-21.15L35.95-21.15Q35.95-20.75 35.3-19.58 34.65-18.4 34.35-18.4L34.35-18.4Q32.1-18.4 31.2-18.5 30.3-18.6 30-18.63 29.7-18.65 29.47-18.68 29.25-18.7 29.15-18.7L29.15-18.7 29.05-18.75Q28.1-18.75 27.82-18.45 27.55-18.15 27.55-17.1L27.55-17.1 27.35-7.8Q27.35-4.55 28.17-3.28 29-2 31.65-2L31.65-2Q32.7-2 33.97-2.48 35.25-2.95 35.35-2.95L35.35-2.95Q35.85-2.95 35.85-2.3 35.85-1.65 34.12-0.58 32.4 0.5 30.4 0.5L30.4 0.5Q23.65 0.5 23.65-5.35L23.65-5.35 23.65-6.1 23.85-17.75Q23.85-18.25 23.65-18.4 23.45-18.55 22.8-18.55Z" opacity="1" transform="matrix(1,0,0,1,0,0)" fill="#ee3e38" class="wordmark-text-0" data-fill-palette-color="primary" id="text-0"></path></svg></g></svg></g></svg></g></svg></g><g></g></svg></g></svg></g></svg></g><g><path d="M137.007 11.15A94.626 94.626 0 0 1 258.513 11.15L244.736 11.15A80.849 80.849 0 0 0 150.784 11.15L137.007 11.15M137.007 236.05A94.626 94.626 0 0 0 258.513 236.05L244.736 236.05A80.849 80.849 0 0 1 150.784 236.05L137.007 236.05" fill="#ee3e38" stroke="transparent" data-fill-palette-color="tertiary"></path></g></svg></g><defs></defs></svg><rect width="395.52" height="247.2" fill="none" stroke="none" visibility="hidden"></rect></g></svg></g></svg>